<?xml version="1.0" encoding="utf-8"?>
<!-- Generator: Adobe Illustrator 24.0.2, SVG Export Plug-In . SVG Version: 6.00 Build 0)  -->
<svg version="1.1" id="Calque_1" xmlns="http://www.w3.org/2000/svg" xmlns:xlink="http://www.w3.org/1999/xlink" x="0px" y="0px"
	 viewBox="0 0 850.4 566.9" style="enable-background:new 0 0 850.4 566.9;" xml:space="preserve">
<style type="text/css">
	.st0{fill:url(#SVGID_1_);stroke:#000000;stroke-miterlimit:10;}
	.st1{fill:url(#SVGID_2_);stroke:#000000;stroke-miterlimit:10;}
	.st2{fill:url(#SVGID_3_);stroke:#000000;stroke-miterlimit:10;}
	.st3{fill:url(#SVGID_4_);}
	.st4{fill:url(#SVGID_5_);}
	.st5{fill:url(#SVGID_6_);}
</style>
<g id="XMLID_1_">
	<g>
		<linearGradient id="SVGID_1_" gradientUnits="userSpaceOnUse" x1="350.9007" y1="175.9814" x2="377.3011" y2="187.7356">
			<stop  offset="0" style="stop-color:#EB212E"/>
			<stop  offset="0.5607" style="stop-color:#FFF02A"/>
			<stop  offset="0.8507" style="stop-color:#F79D31"/>
		</linearGradient>
		<path class="st0" d="M377.7,186.9c0,0-12.2-10.4-27.6-9"/>
		<linearGradient id="SVGID_2_" gradientUnits="userSpaceOnUse" x1="489.2274" y1="250.5417" x2="498.2775" y2="254.5711">
			<stop  offset="0" style="stop-color:#EB212E"/>
			<stop  offset="0.5607" style="stop-color:#FFF02A"/>
			<stop  offset="0.8507" style="stop-color:#F79D31"/>
		</linearGradient>
		<path class="st1" d="M484.5,261.3c0,0,10.8-7.1,18.6-17.4"/>
		<linearGradient id="SVGID_3_" gradientUnits="userSpaceOnUse" x1="320.8665" y1="238.8268" x2="490.5427" y2="314.3714">
			<stop  offset="0" style="stop-color:#EB212E"/>
			<stop  offset="0.5607" style="stop-color:#FFF02A"/>
			<stop  offset="0.8507" style="stop-color:#F79D31"/>
		</linearGradient>
		<path class="st2" d="M503.1,243.8l-119.7-83.3c-14.1-9.8-33.4,0.3-33.4,17.4v135.7l27.6-20.7v-106l106.8,74.3l-106.8,74.3
			L352.7,355c5.8,10.2,19.8,14.5,30.6,7l119.7-83.3C515.2,270.2,515.2,252.3,503.1,243.8z"/>
	</g>
</g>
<linearGradient id="SVGID_4_" gradientUnits="userSpaceOnUse" x1="320.1135" y1="289.4448" x2="393.0314" y2="199.3987">
	<stop  offset="0" style="stop-color:#BC2132"/>
	<stop  offset="0.1124" style="stop-color:#BD2732"/>
	<stop  offset="0.2364" style="stop-color:#BF3533"/>
	<stop  offset="0.3661" style="stop-color:#C34936"/>
	<stop  offset="0.4997" style="stop-color:#C96139"/>
	<stop  offset="0.6363" style="stop-color:#D17C3D"/>
	<stop  offset="0.7754" style="stop-color:#DC9E41"/>
	<stop  offset="0.9139" style="stop-color:#EBC946"/>
	<stop  offset="1" style="stop-color:#F8EB48"/>
</linearGradient>
<path class="st3" d="M377.7,186.9v106L350,313.7V178C365.4,176.6,377.7,186.9,377.7,186.9z"/>
<linearGradient id="SVGID_5_" gradientUnits="userSpaceOnUse" x1="350.0229" y1="173.3404" x2="503.9341" y2="241.8661">
	<stop  offset="5.406310e-02" style="stop-color:#F8EB48"/>
	<stop  offset="0.8053" style="stop-color:#EB212E"/>
</linearGradient>
<path class="st4" d="M383.4,160.5l119.7,83.3c-7.9,10.3-18.6,17.4-18.6,17.4l-106.8-74.3c0,0-12.2-10.4-27.6-9
	C350,160.8,369.3,150.8,383.4,160.5z"/>
<g>
	<linearGradient id="SVGID_6_" gradientUnits="userSpaceOnUse" x1="384.9769" y1="282.5941" x2="484.886" y2="327.0764">
		<stop  offset="0" style="stop-color:#FFF02A"/>
		<stop  offset="0.9423" style="stop-color:#EB212E"/>
	</linearGradient>
	<path class="st5" d="M503.1,243.8c12.1,8.4,12.1,26.4,0,34.9L383.4,362c-10.9,7.6-24.8,3.3-30.6-7l24.9-19.4l106.8-74.3
		C484.5,261.3,495.2,254.1,503.1,243.8z"/>
</g>
</svg>
